<?xml version="1.0" encoding="utf-8"?>
<!-- Generator: Adobe Illustrator 26.0.0, SVG Export Plug-In . SVG Version: 6.00 Build 0)  -->
<svg version="1.1" id="Layer_1" xmlns="http://www.w3.org/2000/svg" xmlns:xlink="http://www.w3.org/1999/xlink" x="0px" y="0px"
	 viewBox="0 0 50 50" style="enable-background:new 0 0 50 50;" xml:space="preserve">
<style type="text/css">
	.st0{fill:#F6BA49;stroke:#F2BA49;stroke-miterlimit:10;}
	.st1{fill:#E93F50;stroke:#E83F50;stroke-miterlimit:10;}
	.st2{fill:#53A989;stroke:#52A889;stroke-miterlimit:10;}
</style>
<g>
	<path class="st0" d="M33.3,29.9c-0.5-0.3-0.8-0.5-0.8-0.5c-1.9-1.2-2-1.3-2-1.4c-0.1-0.5,0.6-1.1,1-1.4c0.2-0.2,0.5-0.2,0.7-0.5
		c0.2-0.3,0.2-0.5,0.3-0.8c0.2-0.5,0.5-1.5,1.2-2c0.2-0.1,0.3-0.2,0.5-0.3c0.2-0.3,0.1-0.6,0.2-1c0.1-0.9,0.8-1.4,1-1.5
		c0.4-0.3,0.6-0.3,0.8-0.6c0.3-0.3,0.2-0.6,0.4-1.1c0.2-0.5,0.4-1.1,0.8-1.2c0.2,0,0.4,0,0.5,0c0.1,0,0.2,0.1,0.5,0.3
		c0.3,0.2,0.5,0.3,0.5,0.3c0.1,0,0.3,0.2,0.8,0.5c0,0,0.4,0.3,1.1,0.6c1.8,1.1,2.6,1.2,3.7,2.2c0.2,0.2,0.4,0.3,0.5,0.6
		c0.3,0.3,1.2,1.7,1.1,3.5c-0.1,2.5-2.2,4.1-2.7,4.5c-1.2,0.9-1.4,0.4-4,1.8c-0.7,0.4-1.2,0.6-1.6,0.8c-0.2,0.1-0.5,0.2-0.5,0.2
		c-0.4,0.1-0.8,0.3-0.8,0.3c-0.5,0.4-1.7,0.1-2.5,0c-0.5,0-0.8,0-0.8-0.1c0-0.2,0.3-0.3,0.7-0.8c0.1-0.2,0.3-0.5,0.4-0.9
		c0-0.1,0-0.5-0.1-0.8C34,30.5,33.9,30.3,33.3,29.9z"/>
	
		<rect x="33.3" y="12.4" transform="matrix(-0.5306 0.8476 -0.8476 -0.5306 66.1362 -4.0203)" class="st0" width="1.8" height="7.8"/>
	<path class="st0" d="M30.4,15c-0.4-0.3-0.6-0.8-0.3-1.3c0.3-0.4,0.8-0.6,1.3-0.3"/>
	<rect x="30" y="13.8" transform="matrix(-0.5306 0.8476 -0.8476 -0.5306 63.1466 2.3015)" class="st0" width="1.8" height="9.7"/>
	<path class="st0" d="M26.3,16.8c-0.5-0.3-0.7-1-0.5-1.4c0.3-0.4,0.9-0.5,1.5-0.2"/>
	<rect x="27.6" y="16" transform="matrix(-0.5306 0.8476 -0.8476 -0.5306 61.7841 8.681)" class="st0" width="1.8" height="10.9"/>
	<path class="st0" d="M23.4,19.3c-0.6-0.4-0.8-1-0.5-1.4s1-0.5,1.5-0.1"/>
	
		<rect x="26.2" y="20.2" transform="matrix(-0.5306 0.8476 -0.8476 -0.5306 62.658 15.1217)" class="st0" width="1.8" height="9.5"/>
	<path class="st0" d="M22.6,23.2c-0.5-0.3-0.7-0.9-0.4-1.4c0.3-0.4,0.9-0.5,1.4-0.2"/>
	<path class="st0" d="M32.4,29.5"/>
	<rect x="33.1" y="29.7" transform="matrix(0.437 0.8995 -0.8995 0.437 49.3981 -11.6813)" class="st0" width="1.8" height="7.8"/>
	<path class="st0" d="M30.9,36.2c-0.5,0.2-1,0-1.2-0.4c-0.2-0.5,0-1,0.4-1.2"/>
	<path class="st1" d="M10.9,33.4c0.5-0.3,0.8-0.5,0.8-0.5c1.9-1.1,2.1-1.1,2.2-1.1c0.5,0.2,0.7,1.1,0.7,1.5c0,0.3,0,0.5,0.1,0.8
		c0.1,0.3,0.3,0.4,0.5,0.7c0.4,0.4,1.1,1.2,1.2,2c0,0.2,0,0.4,0.1,0.6c0.2,0.3,0.4,0.4,0.8,0.7c0.7,0.5,0.9,1.4,0.9,1.6
		c0.1,0.5-0.1,0.6,0.1,1c0.2,0.4,0.4,0.5,0.8,0.9c0.4,0.4,0.8,0.8,0.6,1.3c-0.1,0.2-0.2,0.4-0.3,0.4c-0.1,0.1-0.2,0.2-0.5,0.3
		c-0.3,0.2-0.5,0.3-0.6,0.3c-0.1,0-0.3,0.2-0.8,0.5c0,0-0.4,0.3-1.1,0.6c-1.8,1.1-2.3,1.7-3.7,2.2c-0.2,0.1-0.5,0.1-0.8,0.2
		c-0.4,0.1-2.1,0.2-3.6-0.7c-2.2-1.3-2.6-3.9-2.7-4.6c-0.2-1.5,0.3-1.4,0.3-4.4c0-0.8,0-1.3,0.1-1.8c0-0.2,0.1-0.5,0.1-0.5
		c0.1-0.4,0.2-0.8,0.2-0.8c-0.1-0.6,0.8-1.5,1.2-2.2c0.3-0.5,0.4-0.7,0.5-0.7c0.2,0,0.1,0.4,0.4,1c0.1,0.2,0.3,0.5,0.6,0.7
		c0.1,0.1,0.4,0.3,0.8,0.3C10.1,33.7,10.3,33.7,10.9,33.4z"/>
	
		<rect x="21.6" y="36.7" transform="matrix(-0.4922 -0.8705 0.8705 -0.4922 -1.8268 80.1722)" class="st1" width="1.8" height="7.8"/>
	<path class="st1" d="M25.4,37.9c0.4-0.3,1-0.1,1.3,0.3c0.3,0.4,0.1,1-0.3,1.3"/>
	<rect x="21" y="31.8" transform="matrix(-0.4922 -0.8705 0.8705 -0.4922 0.8728 73.817)" class="st1" width="1.8" height="9.7"/>
	<path class="st1" d="M25.8,33.5c0.5-0.3,1.2-0.2,1.4,0.2c0.3,0.4,0,1.1-0.5,1.4"/>
	
		<rect x="19.7" y="27.7" transform="matrix(-0.4922 -0.8705 0.8705 -0.4922 1.965 67.4691)" class="st1" width="1.8" height="10.9"/>
	<path class="st1" d="M25,29.7c0.6-0.3,1.3-0.2,1.5,0.2c0.3,0.4,0,1.1-0.6,1.4"/>
	
		<rect x="17.3" y="25.6" transform="matrix(-0.4922 -0.8705 0.8705 -0.4922 0.8483 61.1493)" class="st1" width="1.8" height="9.5"/>
	<path class="st1" d="M21.9,27.2c0.5-0.3,1.2-0.2,1.4,0.3c0.3,0.4,0,1-0.5,1.3"/>
	<path class="st1" d="M11.7,32.8"/>
	
		<rect x="6.4" y="28.3" transform="matrix(-0.999 -4.462490e-02 4.462490e-02 -0.999 13.1962 64.7574)" class="st1" width="1.8" height="7.8"/>
	<path class="st1" d="M6.6,28.3c0-0.5,0.5-0.9,1-0.9c0.5,0,0.9,0.5,0.9,1"/>
	<path class="st2" d="M19,11.7c0,0.6,0,1,0,1c0.1,2.2,0,2.4-0.1,2.5c-0.4,0.3-1.3,0.1-1.7-0.1c-0.3-0.1-0.4-0.3-0.8-0.3
		c-0.3,0-0.5,0.1-0.9,0.1c-0.5,0.1-1.5,0.4-2.3,0c-0.2-0.1-0.3-0.2-0.5-0.2c-0.4,0-0.6,0.2-0.9,0.3c-0.8,0.3-1.7,0.1-1.8,0
		c-0.5-0.2-0.5-0.4-0.9-0.4c-0.4,0-0.6,0.2-1.1,0.3c-0.5,0.1-1.1,0.3-1.4,0c-0.2-0.1-0.2-0.4-0.3-0.5c0-0.1-0.1-0.2-0.1-0.6
		c0-0.3,0-0.6,0-0.6c0-0.1,0-0.4,0-0.9c0,0,0-0.5,0-1.3C5.9,9,5.6,8.3,5.9,6.8C5.9,6.5,6,6.3,6.1,6c0.2-0.4,0.8-1.9,2.4-2.8
		c2.2-1.3,4.7-0.4,5.3-0.1c1.4,0.5,1.1,0.9,3.7,2.4C18.1,5.8,18.6,6,19,6.3c0.2,0.1,0.4,0.3,0.4,0.3C19.7,6.8,20,7.2,20,7.2
		c0.6,0.2,1,1.4,1.4,2.1c0.3,0.5,0.4,0.7,0.3,0.8c-0.1,0.1-0.4-0.1-1-0.1c-0.2,0-0.6,0-0.9,0.2c-0.1,0-0.4,0.2-0.6,0.6
		C19.1,10.8,19,11,19,11.7z"/>
	
		<rect x="6.2" y="14.4" transform="matrix(0.9999 -1.363940e-02 1.363940e-02 0.9999 -0.2497 9.840341e-02)" class="st2" width="1.8" height="7.8"/>
	<path class="st2" d="M8.1,22.3c0,0.5-0.4,0.9-0.9,0.9s-0.9-0.4-0.9-0.9"/>
	
		<rect x="9.9" y="14.9" transform="matrix(0.9999 -1.363940e-02 1.363940e-02 0.9999 -0.2693 0.1493)" class="st2" width="1.8" height="9.7"/>
	<path class="st2" d="M11.8,24.7c0,0.6-0.4,1.1-0.9,1.2c-0.5,0-0.9-0.5-0.9-1.1"/>
	
		<rect x="13.6" y="14.9" transform="matrix(0.9999 -1.363940e-02 1.363940e-02 0.9999 -0.2762 0.1997)" class="st2" width="1.8" height="10.9"/>
	<path class="st2" d="M15.5,25.8c0,0.7-0.4,1.2-0.9,1.2s-0.9-0.5-0.9-1.2"/>
	
		<rect x="17.2" y="14.8" transform="matrix(0.9999 -1.363940e-02 1.363940e-02 0.9999 -0.2657 0.2492)" class="st2" width="1.8" height="9.5"/>
	<path class="st2" d="M19.1,24.3c0,0.6-0.4,1.1-0.9,1.1s-0.9-0.5-0.9-1.1"/>
	<path class="st0" d="M19.1,12.7"/>
	<rect x="20.8" y="5.2" transform="matrix(0.519 -0.8548 0.8548 0.519 2.6767 22.9428)" class="st2" width="1.8" height="7.8"/>
	<path class="st2" d="M25.6,10.3c0.4,0.3,0.6,0.8,0.3,1.3c-0.3,0.4-0.8,0.6-1.3,0.3"/>
</g>
</svg>